{"accessors":[{"bufferView":0,"componentType":5126,"count":240,"max":[9.958333333333334],"min":[0.0],"type":"SCALAR"},{"bufferView":1,"componentType":5126,"count":240,"max":[61.65330123901367,80.0635986328125,165.25999450683594],"min":[-42.94340133666992,12.437399864196777,-4.944479942321777],"type":"VEC3"}],"animations":[{"channels":[{"sampler":0,"target":{"node":0,"path":"translation"}}],"extensions":{"S8S_v3d_animation_data":{"auto":true,"loop":"REPEAT","offset":0.0,"repeatCount":1.0,"repeatInfinite":true}},"name":"Camera","samplers":[{"input":0,"interpolation":"LINEAR","output":1}]}],"asset":{"generator":"Soft8Soft Verge3D for Blender add-on","version":"2.0"},"bufferViews":[{"buffer":0,"byteLength":960,"byteOffset":0},{"buffer":0,"byteLength":2880,"byteOffset":960}],"buffers":[{"byteLength":3840,"uri":"3D_Anything.bin"}],"cameras":[{"extensions":{"S8S_v3d_camera_data":{"controls":"ORBIT","enablePan":true,"moveSpeed":1.0,"orbitMaxDistance":100.0,"orbitMaxPolarAngle":3.1415927410125732,"orbitMaxZoom":100.0,"orbitMinDistance":0.0,"orbitMinPolarAngle":0.0,"orbitMinZoom":0.009999999776482582,"orbitTarget":[0.0,0.0,-0.0],"rotateSpeed":1.0,"viewportFitInitialAspect":1.7777777777777777,"viewportFitType":"AUTO"}},"name":"摄像机.001","perspective":{"aspectRatio":1.7777777777777777,"yfov":1.1874993173003463,"zfar":1000.0,"znear":0.10000000149011612},"type":"perspective"},{"extensions":{"S8S_v3d_camera_data":{"controls":"ORBIT","enablePan":true,"moveSpeed":1.0,"orbitMaxDistance":100.0,"orbitMaxPolarAngle":3.1415927410125732,"orbitMaxZoom":100.0,"orbitMinDistance":0.0,"orbitMinPolarAngle":0.0,"orbitMinZoom":0.009999999776482582,"orbitTarget":[0.0,0.0,-0.0],"rotateSpeed":1.0,"viewportFitInitialAspect":1.7777777777777777,"viewportFitType":"AUTO"}},"name":"摄像机","perspective":{"aspectRatio":1.7777777777777777,"yfov":1.1874993173003463,"zfar":1000.0,"znear":0.10000000149011612},"type":"perspective"},{"extensions":{"S8S_v3d_camera_data":{"controls":"ORBIT","enablePan":true,"moveSpeed":1.0,"orbitMaxDistance":100.0,"orbitMaxPolarAngle":3.1415927410125732,"orbitMaxZoom":100.0,"orbitMinDistance":0.0,"orbitMinPolarAngle":0.0,"orbitMinZoom":0.009999999776482582,"orbitTarget":[0.0,0.0,-0.0],"rotateSpeed":1.0,"viewportFitInitialAspect":1.7777777777777777,"viewportFitType":"AUTO"}},"name":"摄像机.002","perspective":{"aspectRatio":1.7777777777777777,"yfov":1.1874993173003463,"zfar":1000.0,"znear":0.10000000149011612},"type":"perspective"},{"extensions":{"S8S_v3d_camera_data":{"controls":"ORBIT","enablePan":true,"moveSpeed":1.0,"orbitMaxDistance":100.0,"orbitMaxPolarAngle":3.1415927410125732,"orbitMaxZoom":100.0,"orbitMinDistance":0.0,"orbitMinPolarAngle":0.0,"orbitMinZoom":0.009999999776482582,"orbitTarget":[0.0,0.0,-0.0],"rotateSpeed":1.0,"viewportFitInitialAspect":1.7777777777777777,"viewportFitType":"AUTO"}},"name":"摄像机.003","perspective":{"aspectRatio":1.7777777777777777,"yfov":1.3185936532862654,"zfar":1000.0,"znear":0.10000000149011612},"type":"perspective"}],"extensionsUsed":["S8S_v3d_material_data","S8S_v3d_camera_data","S8S_v3d_node_data","S8S_v3d_animation_data","S8S_v3d_scene_data"],"materials":[{"extensions":{"S8S_v3d_material_data":{"nodeGraph":{"edges":[{"fromNode":1,"fromOutput":0,"toInput":0,"toNode":0}],"nodes":[{"inputs":[[0,0,0,0],[0,0,0,0]],"is_active_output":true,"name":"World Output","outputs":[],"type":"OUTPUT_WORLD_BL"},{"inputs":[[0.06071225553750992,0.06873366236686707,0.06924598664045334,1.0],1.0],"is_active_output":false,"name":"Background","outputs":[[0,0,0,0]],"type":"BACKGROUND_BL"}]},"useCastShadows":true}},"name":"Verge3D_Environment_World"}],"nodes":[{"camera":3,"extensions":{"S8S_v3d_node_data":{"constraints":[{"mute":false,"name":"标准跟随","target":3,"trackAxis":"-Y","type":"trackTo","upAxis":"-Z"}],"frustumCulling":true,"groupNames":["Collection"],"hidden":false,"renderOrder":0}},"name":"Camera","rotation":[-0.300089955329895,-0.05408191308379173,0.11939605325460434,0.9448628425598145],"scale":[1.0,0.9999999403953552,0.9999999403953552],"translation":[17.398000717163086,18.839399337768555,165.25999450683594]},{"camera":0,"extensions":{"S8S_v3d_node_data":{"frustumCulling":true,"groupNames":["Collection"],"hidden":false,"renderOrder":0}},"name":"Camera1","rotation":[0.012603617273271084,-1.534375684286715e-07,2.899362243624637e-07,0.9999206066131592],"scale":[1.0,0.9999999403953552,0.9999999403953552],"translation":[0.19969500601291656,12.060999870300293,130.26600646972656]},{"camera":2,"extensions":{"S8S_v3d_node_data":{"frustumCulling":true,"groupNames":["Collection"],"hidden":false,"renderOrder":0}},"name":"Camera2","rotation":[-0.12351003289222717,0.2664889693260193,0.041598282754421234,0.9549861550331116],"scale":[1.0,0.9999999403953552,0.9999998807907104],"translation":[74.66560363769531,44.70000076293945,106.51699829101562]},{"extensions":{"S8S_v3d_node_data":{"frustumCulling":true,"groupNames":["Collection"],"hidden":false,"renderOrder":0}},"name":"Target","scale":[2.145819902420044,2.145819902420044,2.145819902420044],"translation":[0.5393660068511963,2.6920299530029297,0.21720799803733826]},{"camera":1,"extensions":{"S8S_v3d_node_data":{"frustumCulling":true,"groupNames":["Collection"],"hidden":false,"renderOrder":0}},"name":"Camera3","rotation":[-0.0010674262885004282,-0.2345699816942215,0.008675215765833855,0.972059965133667],"scale":[1.0,0.9999998807907104,0.9999999403953552],"translation":[-65.77169799804688,14.013699531555176,106.55599975585938]}],"scene":0,"scenes":[{"extensions":{"S8S_v3d_scene_data":{"aaMethod":"AUTO","iblEnvironmentMode":"PMREM","physicallyCorrectLights":true,"pmremMaxTileSize":512,"shadowMap":{"esmDistanceScale":1.0,"renderReverseSided":false,"renderSingleSided":true,"type":"PCFPOISSON"},"toneMapping":{"type":"filmicBlender"},"worldMaterial":0}},"extras":{"animFrameRate":24,"coordSystem":"Z_UP_RIGHT"},"name":"Scene","nodes":[4,1,2,3,0]}]}
