{"accessors":[{"bufferView":0,"componentType":5123,"count":318891,"max":[53487],"min":[0],"type":"SCALAR"},{"bufferView":1,"componentType":5126,"count":53488,"max":[0.20539399981498718,0.2323870062828064,-0.06602499634027481],"min":[-0.22898200154304504,-0.2032719999551773,-0.24214400351047516],"type":"VEC3"},{"bufferView":2,"componentType":5126,"count":53488,"max":[0.9999018907546997,0.999772310256958,0.9998962879180908],"min":[-0.9998661875724792,-0.9999009370803833,-0.999947726726532],"type":"VEC3"},{"bufferView":3,"componentType":5126,"count":53488,"max":[1.0416669845581055,1.0],"min":[0.04166699945926666,0.2623850107192993],"type":"VEC2"},{"bufferView":4,"componentType":5125,"count":400128,"max":[67329],"min":[0],"type":"SCALAR"},{"bufferView":5,"componentType":5126,"count":67330,"max":[0.21129700541496277,0.23634499311447144,-0.061709001660346985],"min":[-0.23376500606536865,-0.211885005235672,-0.242917001247406],"type":"VEC3"},{"bufferView":6,"componentType":5126,"count":67330,"max":[0.9999849200248718,0.9999961256980896,0.9999698996543884],"min":[-0.9999487400054932,-0.9999976754188538,-0.9999959468841553],"type":"VEC3"},{"bufferView":7,"componentType":5126,"count":67330,"max":[0.8341709971427917,1.0],"min":[0.0,0.03114098310470581],"type":"VEC2"},{"bufferView":8,"componentType":5123,"count":36339,"max":[6331],"min":[0],"type":"SCALAR"},{"bufferView":9,"componentType":5126,"count":6332,"max":[0.204816997051239,0.09328100085258484,-0.09745799750089645],"min":[-0.1558150053024292,-0.1713789999485016,-0.15683500468730927],"type":"VEC3"},{"bufferView":10,"componentType":5126,"count":6332,"max":[0.9994131326675415,0.9996160864830017,0.9999709129333496],"min":[-0.9994130730628967,-0.9996215105056763,-0.9999690055847168],"type":"VEC3"},{"bufferView":11,"componentType":5126,"count":6332,"max":[0.09104499965906143,1.0],"min":[0.0,0.9117759987711906],"type":"VEC2"},{"bufferView":12,"componentType":5123,"count":31008,"max":[5251],"min":[0],"type":"SCALAR"},{"bufferView":13,"componentType":5126,"count":5252,"max":[0.20250900089740753,-0.027904000133275986,-0.07279600203037262],"min":[-0.043954998254776,-0.20495299994945526,-0.14316600561141968],"type":"VEC3"},{"bufferView":14,"componentType":5126,"count":5252,"max":[0.9987149238586426,0.9996480941772461,0.9986592531204224],"min":[-0.999642550945282,-0.9996530413627625,-0.9991414546966553],"type":"VEC3"},{"bufferView":15,"componentType":5126,"count":5252,"max":[0.9173979759216309,1.0],"min":[0.08406399935483932,0.33273202180862427],"type":"VEC2"},{"bufferView":16,"componentType":5121,"count":576,"max":[195],"min":[0],"type":"SCALAR"},{"bufferView":17,"componentType":5126,"count":196,"max":[0.08423999696969986,0.16835899651050568,-0.09688899666070938],"min":[-0.15891599655151367,-0.04296699911355972,-0.21103699505329132],"type":"VEC3"},{"bufferView":18,"componentType":5126,"count":196,"max":[0.9239596128463745,0.9219430088996887,0.9971633553504944],"min":[-0.9239605069160461,-0.9219730496406555,-0.9971611499786377],"type":"VEC3"},{"bufferView":19,"componentType":5126,"count":196,"max":[0.977400004863739,0.9813989996910095],"min":[0.01860100030899048,0.022599995136260986],"type":"VEC2"},{"bufferView":20,"componentType":5123,"count":105120,"max":[19791],"min":[0],"type":"SCALAR"},{"bufferView":21,"componentType":5126,"count":19792,"max":[0.197625994682312,0.19845600426197052,-0.06191499903798103],"min":[-0.17571400105953217,-0.20585200190544128,-0.2446330040693283],"type":"VEC3"},{"bufferView":22,"componentType":5126,"count":19792,"max":[0.9998357892036438,0.9999727010726929,0.9976405501365662],"min":[-0.9999428987503052,-0.9994739294052124,-0.9996996521949768],"type":"VEC3"},{"bufferView":23,"componentType":5126,"count":19792,"max":[2.581634998321533,0.8553059995174408],"min":[-0.5823990106582642,-1.9944329261779785],"type":"VEC2"}],"asset":{"generator":"Soft8Soft Verge3D for Blender add-on","version":"2.0"},"bufferViews":[{"buffer":0,"byteLength":637782,"byteOffset":0,"target":34963},{"buffer":0,"byteLength":641856,"byteOffset":637784,"target":34962},{"buffer":0,"byteLength":641856,"byteOffset":1279640,"target":34962},{"buffer":0,"byteLength":427904,"byteOffset":1921496,"target":34962},{"buffer":0,"byteLength":1600512,"byteOffset":2349400,"target":34963},{"buffer":0,"byteLength":807960,"byteOffset":3949912,"target":34962},{"buffer":0,"byteLength":807960,"byteOffset":4757872,"target":34962},{"buffer":0,"byteLength":538640,"byteOffset":5565832,"target":34962},{"buffer":0,"byteLength":72678,"byteOffset":6104472,"target":34963},{"buffer":0,"byteLength":75984,"byteOffset":6177152,"target":34962},{"buffer":0,"byteLength":75984,"byteOffset":6253136,"target":34962},{"buffer":0,"byteLength":50656,"byteOffset":6329120,"target":34962},{"buffer":0,"byteLength":62016,"byteOffset":6379776,"target":34963},{"buffer":0,"byteLength":63024,"byteOffset":6441792,"target":34962},{"buffer":0,"byteLength":63024,"byteOffset":6504816,"target":34962},{"buffer":0,"byteLength":42016,"byteOffset":6567840,"target":34962},{"buffer":0,"byteLength":576,"byteOffset":6609856,"target":34963},{"buffer":0,"byteLength":2352,"byteOffset":6610432,"target":34962},{"buffer":0,"byteLength":2352,"byteOffset":6612784,"target":34962},{"buffer":0,"byteLength":1568,"byteOffset":6615136,"target":34962},{"buffer":0,"byteLength":210240,"byteOffset":6616704,"target":34963},{"buffer":0,"byteLength":237504,"byteOffset":6826944,"target":34962},{"buffer":0,"byteLength":237504,"byteOffset":7064448,"target":34962},{"buffer":0,"byteLength":158336,"byteOffset":7301952,"target":34962}],"buffers":[{"byteLength":7460288,"uri":"earphone.bin"}],"cameras":[{"extensions":{"S8S_v3d_camera_data":{"controls":"ORBIT","enablePan":true,"moveSpeed":1,"orbitMaxDistance":10000,"orbitMaxPolarAngle":3.141592653589793,"orbitMinDistance":0,"orbitMinPolarAngle":0,"orbitTarget":[0.1997358500957489,15.457437515258789,-4.4411163330078125],"rotateSpeed":1,"viewportFitInitialAspect":1,"viewportFitType":"VERTICAL"}},"name":"__DEFAULT__","perspective":{"aspectRatio":1,"yfov":0.7853981633974483,"zfar":1000.0,"znear":0.10000000149011612},"type":"perspective"}],"extensionsUsed":["S8S_v3d_material_data","S8S_v3d_camera_data","S8S_v3d_mesh_data","S8S_v3d_node_data","S8S_v3d_scene_data"],"materials":[{"extensions":{"S8S_v3d_material_data":{"nodeGraph":{"edges":[{"fromNode":1,"fromOutput":0,"toInput":0,"toNode":0}],"nodes":[{"inputs":[[0,0,0,0],[0,0,0,0],[0.0,0.0,0.0]],"is_active_output":true,"name":"材质输出","outputs":[],"type":"OUTPUT_MATERIAL_BL"},{"inputs":[[0.800000011920929,0.800000011920929,0.800000011920929,1.0],0.0,[1.0,0.20000000298023224,0.10000000149011612],[0.800000011920929,0.800000011920929,0.800000011920929,1.0],0.6499999761581421,0.5,0.0,0.5,0.0,0.0,0.0,0.5,0.0,0.029999999329447746,1.4500000476837158,0.0,0.0,[0.0,0.0,0.0,1.0],1.0,1.0,[0.0,0.0,0.0],[0.0,0.0,0.0],[0.0,0.0,0.0]],"is_active_output":false,"name":"原理化BSDF","outputs":[[0,0,0,0]],"type":"BSDF_PRINCIPLED_BL"}]},"useCastShadows":true}},"name":"Material.008"},{"extensions":{"S8S_v3d_material_data":{"nodeGraph":{"edges":[{"fromNode":1,"fromOutput":0,"toInput":0,"toNode":0}],"nodes":[{"inputs":[[0,0,0,0],[0,0,0,0],[0.0,0.0,0.0]],"is_active_output":true,"name":"材质输出","outputs":[],"type":"OUTPUT_MATERIAL_BL"},{"inputs":[[0.800000011920929,0.800000011920929,0.800000011920929,1.0],0.0,[1.0,0.20000000298023224,0.10000000149011612],[0.800000011920929,0.800000011920929,0.800000011920929,1.0],0.0,0.5,0.0,0.5,0.0,0.0,0.0,0.5,0.0,0.029999999329447746,1.4500000476837158,0.0,0.0,[0.0,0.0,0.0,1.0],1.0,1.0,[0.0,0.0,0.0],[0.0,0.0,0.0],[0.0,0.0,0.0]],"is_active_output":false,"name":"原理化BSDF","outputs":[[0,0,0,0]],"type":"BSDF_PRINCIPLED_BL"}]},"useCastShadows":true}},"name":"Material.009"},{"extensions":{"S8S_v3d_material_data":{"nodeGraph":{"edges":[{"fromNode":1,"fromOutput":0,"toInput":0,"toNode":0}],"nodes":[{"inputs":[[0,0,0,0],[0,0,0,0],[0.0,0.0,0.0]],"is_active_output":true,"name":"材质输出","outputs":[],"type":"OUTPUT_MATERIAL_BL"},{"inputs":[[0.032723162323236465,0.0705796331167221,0.18326260149478912,1.0],0.0,[1.0,0.20000000298023224,0.10000000149011612],[0.800000011920929,0.800000011920929,0.800000011920929,1.0],0.0,0.5,0.0,0.5,0.0,0.0,0.0,0.5,0.0,0.029999999329447746,1.4500000476837158,0.0,0.0,[0.0,0.0,0.0,1.0],1.0,1.0,[0.0,0.0,0.0],[0.0,0.0,0.0],[0.0,0.0,0.0]],"is_active_output":false,"name":"原理化BSDF","outputs":[[0,0,0,0]],"type":"BSDF_PRINCIPLED_BL"}]},"useCastShadows":true}},"name":"Material.010"},{"extensions":{"S8S_v3d_material_data":{"nodeGraph":{"edges":[{"fromNode":1,"fromOutput":0,"toInput":0,"toNode":0}],"nodes":[{"inputs":[[0,0,0,0],[0,0,0,0],[0.0,0.0,0.0]],"is_active_output":true,"name":"材质输出","outputs":[],"type":"OUTPUT_MATERIAL_BL"},{"inputs":[[0.05711684003472328,0.2501772344112396,0.8000000715255737,1.0],0.0,[1.0,0.20000000298023224,0.10000000149011612],[0.800000011920929,0.800000011920929,0.800000011920929,1.0],1.0,0.5,0.0,0.5,0.0,0.0,0.0,0.5,0.0,0.029999999329447746,1.4500000476837158,0.0,0.0,[0.0,0.0,0.0,1.0],1.0,1.0,[0.0,0.0,0.0],[0.0,0.0,0.0],[0.0,0.0,0.0]],"is_active_output":false,"name":"原理化BSDF","outputs":[[0,0,0,0]],"type":"BSDF_PRINCIPLED_BL"}]},"useCastShadows":true}},"name":"Material.011"},{"extensions":{"S8S_v3d_material_data":{"nodeGraph":{"edges":[{"fromNode":1,"fromOutput":0,"toInput":0,"toNode":0}],"nodes":[{"inputs":[[0,0,0,0],[0,0,0,0],[0.0,0.0,0.0]],"is_active_output":true,"name":"材质输出","outputs":[],"type":"OUTPUT_MATERIAL_BL"},{"inputs":[[0.800000011920929,0.800000011920929,0.800000011920929,1.0],0.0,[1.0,0.20000000298023224,0.10000000149011612],[0.800000011920929,0.800000011920929,0.800000011920929,1.0],1.0,0.5,0.0,0.5,0.0,0.0,0.0,0.5,0.0,0.029999999329447746,1.4500000476837158,0.0,0.0,[0.0,0.0,0.0,1.0],1.0,1.0,[0.0,0.0,0.0],[0.0,0.0,0.0],[0.0,0.0,0.0]],"is_active_output":false,"name":"原理化BSDF","outputs":[[0,0,0,0]],"type":"BSDF_PRINCIPLED_BL"}]},"useCastShadows":true}},"name":"Material.012"},{"extensions":{"S8S_v3d_material_data":{"nodeGraph":{"edges":[{"fromNode":1,"fromOutput":0,"toInput":0,"toNode":0}],"nodes":[{"inputs":[[0,0,0,0],[0,0,0,0],[0.0,0.0,0.0]],"is_active_output":true,"name":"材质输出","outputs":[],"type":"OUTPUT_MATERIAL_BL"},{"inputs":[[0.09592311084270477,0.09592311084270477,0.09592311084270477,1.0],0.0,[1.0,0.20000000298023224,0.10000000149011612],[0.800000011920929,0.800000011920929,0.800000011920929,1.0],0.8500000238418579,0.5,0.0,0.20000000298023224,0.0,0.0,0.0,0.5,0.0,0.029999999329447746,1.4500000476837158,0.0,0.0,[0.0,0.0,0.0,1.0],1.0,1.0,[0.0,0.0,0.0],[0.0,0.0,0.0],[0.0,0.0,0.0]],"is_active_output":false,"name":"原理化BSDF","outputs":[[0,0,0,0]],"type":"BSDF_PRINCIPLED_BL"}]},"useCastShadows":true}},"name":"metal.001"},{"extensions":{"S8S_v3d_material_data":{"nodeGraph":{"edges":[{"fromNode":1,"fromOutput":0,"toInput":0,"toNode":0}],"nodes":[{"inputs":[[0,0,0,0],[0,0,0,0]],"is_active_output":true,"name":"World Output","outputs":[],"type":"OUTPUT_WORLD_BL"},{"inputs":[[0.05087608844041824,0.05087608844041824,0.05087608844041824,1.0],1.0],"is_active_output":false,"name":"Background","outputs":[[0,0,0,0]],"type":"BACKGROUND_BL"}]},"useCastShadows":true}},"name":"Verge3D_Environment_World"}],"meshes":[{"extensions":{"S8S_v3d_mesh_data":{"colorLayers":{},"uvLayers":{"UVMap":"TEXCOORD_0"}}},"name":"耳机03_000.001","primitives":[{"attributes":{"NORMAL":2,"POSITION":1,"TEXCOORD_0":3},"indices":0,"material":4,"mode":4}]},{"extensions":{"S8S_v3d_mesh_data":{"colorLayers":{},"uvLayers":{"UVMap":"TEXCOORD_0"}}},"name":"耳机03_001.002","primitives":[{"attributes":{"NORMAL":6,"POSITION":5,"TEXCOORD_0":7},"indices":4,"material":3,"mode":4}]},{"extensions":{"S8S_v3d_mesh_data":{"colorLayers":{},"uvLayers":{"UVMap":"TEXCOORD_0"}}},"name":"耳机03_001.003","primitives":[{"attributes":{"NORMAL":10,"POSITION":9,"TEXCOORD_0":11},"indices":8,"material":5,"mode":4}]},{"extensions":{"S8S_v3d_mesh_data":{"colorLayers":{},"uvLayers":{"UVMap":"TEXCOORD_0"}}},"name":"耳机03_002.001","primitives":[{"attributes":{"NORMAL":14,"POSITION":13,"TEXCOORD_0":15},"indices":12,"material":2,"mode":4}]},{"extensions":{"S8S_v3d_mesh_data":{"colorLayers":{},"uvLayers":{"UVMap":"TEXCOORD_0"}}},"name":"耳机03_003.001","primitives":[{"attributes":{"NORMAL":18,"POSITION":17,"TEXCOORD_0":19},"indices":16,"material":1,"mode":4}]},{"extensions":{"S8S_v3d_mesh_data":{"colorLayers":{},"uvLayers":{"UVMap":"TEXCOORD_0"}}},"name":"耳机03_004.001","primitives":[{"attributes":{"NORMAL":22,"POSITION":21,"TEXCOORD_0":23},"indices":20,"material":0,"mode":4}]}],"nodes":[{"extensions":{"S8S_v3d_node_data":{"frustumCulling":true,"groupNames":["Collection"],"hidden":false,"renderOrder":0,"useShadows":true}},"mesh":5,"name":"耳机03_004.001","rotation":[0.6934409737586975,-0.07748454809188843,0.11733721941709518,0.7066596746444702],"scale":[52.54676055908203,52.54676055908203,52.54676055908203],"translation":[12.664377212524414,-2.9520375728607178,8.844023704528809]},{"extensions":{"S8S_v3d_node_data":{"frustumCulling":true,"groupNames":["Collection"],"hidden":false,"renderOrder":0,"useShadows":true}},"mesh":0,"name":"耳机03_000.001","rotation":[0.6934409737586975,-0.07748454809188843,0.11733721941709518,0.7066596746444702],"scale":[52.54676055908203,52.54676055908203,52.54676055908203],"translation":[12.664377212524414,-2.9520375728607178,8.844023704528809]},{"extensions":{"S8S_v3d_node_data":{"frustumCulling":true,"groupNames":["Collection"],"hidden":false,"renderOrder":0,"useShadows":true}},"mesh":2,"name":"耳机03_001.003","rotation":[0.6934409737586975,-0.07748454809188843,0.11733721941709518,0.7066596746444702],"scale":[52.54676055908203,52.54676055908203,52.54676055908203],"translation":[12.664377212524414,-2.9520375728607178,8.844023704528809]},{"extensions":{"S8S_v3d_node_data":{"frustumCulling":true,"groupNames":["Collection"],"hidden":false,"renderOrder":0,"useShadows":true}},"mesh":3,"name":"耳机03_002.001","rotation":[0.6934409737586975,-0.07748454809188843,0.11733721941709518,0.7066596746444702],"scale":[52.54676055908203,52.54676055908203,52.54676055908203],"translation":[12.664377212524414,-2.9520375728607178,8.844023704528809]},{"extensions":{"S8S_v3d_node_data":{"frustumCulling":true,"groupNames":["Collection"],"hidden":false,"renderOrder":0,"useShadows":true}},"mesh":4,"name":"耳机03_003.001","rotation":[0.6934409737586975,-0.07748454809188843,0.11733721941709518,0.7066596746444702],"scale":[52.54676055908203,52.54676055908203,52.54676055908203],"translation":[12.664377212524414,-2.9520375728607178,8.844023704528809]},{"extensions":{"S8S_v3d_node_data":{"frustumCulling":true,"groupNames":["Collection"],"hidden":false,"renderOrder":0,"useShadows":true}},"mesh":1,"name":"耳机03_001.002","rotation":[0.6934409737586975,-0.07748454809188843,0.11733721941709518,0.7066596746444702],"scale":[52.54676055908203,52.54676055908203,52.54676055908203],"translation":[12.664377212524414,-2.9520375728607178,8.844023704528809]},{"camera":0,"name":"__DEFAULT_CAMERA__","rotation":[-0.15042240917682648,0.10704019665718079,0.01638542301952839,0.9826734066009521],"scale":[1.0,0.9999998807907104,0.9999999403953552],"translation":[57.6038932800293,99.04264068603516,255.9295654296875]}],"scene":0,"scenes":[{"extensions":{"S8S_v3d_scene_data":{"aaMethod":"AUTO","iblEnvironmentMode":"PMREM","physicallyCorrectLights":true,"pmremMaxTileSize":512,"shadowMap":{"esmDistanceScale":1.0,"renderReverseSided":false,"renderSingleSided":true,"type":"PCFPOISSON"},"toneMapping":{"type":"filmicBlender"},"worldMaterial":6}},"extras":{"animFrameRate":24,"coordSystem":"Z_UP_RIGHT"},"name":"Scene","nodes":[0,4,3,5,1,2,6]}]}
