{"accessors":[{"bufferView":0,"componentType":5123,"count":50400,"max":[20199],"min":[0],"type":"SCALAR"},{"bufferView":1,"componentType":5126,"count":20200,"max":[1.2138656377792358,2.2117273807525635,1.2138652801513672],"min":[-1.2138651609420776,-2.2117273807525635,-1.2138655185699463],"type":"VEC3"},{"bufferView":2,"componentType":5126,"count":20200,"max":[1.0,1.0,1.0],"min":[-1.0,-1.0,-1.0],"type":"VEC3"},{"bufferView":3,"componentType":5125,"count":1768608,"max":[356802],"min":[0],"type":"SCALAR"},{"bufferView":4,"componentType":5126,"count":356803,"max":[1.210631012916565,1.0182216167449951,0.9503495097160339],"min":[-1.210631012916565,-1.0182216167449951,-1.0766386985778809],"type":"VEC3"},{"bufferView":5,"componentType":5126,"count":356803,"max":[1.0000001192092896,1.0000001192092896,1.0],"min":[-1.0000001192092896,-1.0000001192092896,-1.0],"type":"VEC3"},{"bufferView":6,"componentType":5126,"count":356803,"max":[0.9988980889320374,0.9989087767899036],"min":[0.00110253959428519,0.002339303493499756],"type":"VEC2"},{"bufferView":7,"componentType":5123,"count":34992,"max":[10755],"min":[0],"type":"SCALAR"},{"bufferView":8,"componentType":5126,"count":10756,"max":[1.1056292057037354,0.29804882407188416,0.9595972299575806],"min":[-1.1056292057037354,-0.2980492413043976,-0.2599332332611084],"type":"VEC3"},{"bufferView":9,"componentType":5126,"count":10756,"max":[1.0,1.0,1.0],"min":[-1.0,-1.0,-1.0],"type":"VEC3"},{"bufferView":10,"componentType":5126,"count":10756,"max":[0.9994795322418213,0.9994795673410408],"min":[0.0005204326589591801,0.050693511962890625],"type":"VEC2"},{"bufferView":11,"componentType":5123,"count":3456,"max":[890],"min":[0],"type":"SCALAR"},{"bufferView":12,"componentType":5126,"count":891,"max":[0.1750873476266861,0.9465187788009644,-0.06555692106485367],"min":[-0.1750873476266861,-1.0038316249847412,-0.9228929877281189],"type":"VEC3"},{"bufferView":13,"componentType":5126,"count":891,"max":[0.1418839991092682,0.9514676332473755,-0.3067072331905365],"min":[-0.14188404381275177,-0.9514676332473755,-1.0],"type":"VEC3"},{"bufferView":14,"componentType":5126,"count":891,"max":[0.9748741984367371,0.7015608549118042,0.9517698884010315,1.0],"min":[-1.0,-0.7015596628189087,-0.14189843833446503,1.0],"type":"VEC4"},{"bufferView":15,"componentType":5126,"count":891,"max":[0.9701327085494995,0.8834926933050156],"min":[0.15796147286891937,0.03134435415267944],"type":"VEC2"},{"bufferView":16,"componentType":5123,"count":1440,"max":[378],"min":[0],"type":"SCALAR"},{"bufferView":17,"componentType":5126,"count":379,"max":[0.23898734152317047,0.2391825169324875,0.945347249507904],"min":[-0.23898734152317047,-0.2391825169324875,0.9227667450904846],"type":"VEC3"},{"bufferView":18,"componentType":5126,"count":379,"max":[0.12752753496170044,0.13692808151245117,1.0],"min":[-0.12752753496170044,-0.13692668080329895,0.9894225001335144],"type":"VEC3"},{"bufferView":19,"componentType":5126,"count":379,"max":[0.5484694838523865,0.7252285778522491],"min":[0.514465868473053,0.6911436915397644],"type":"VEC2"},{"bufferView":20,"componentType":5123,"count":894,"max":[416],"min":[0],"type":"SCALAR"},{"bufferView":21,"componentType":5126,"count":417,"max":[1.223856806755066,0.19508999586105347,0.1725829541683197],"min":[1.1367251873016357,-0.17258235812187195,-0.17258107662200928],"type":"VEC3"},{"bufferView":22,"componentType":5126,"count":417,"max":[1.0,0.8794403672218323,0.9964451193809509],"min":[-0.10997754335403442,-0.7633948922157288,-0.9964531660079956],"type":"VEC3"},{"bufferView":23,"componentType":5126,"count":417,"max":[1.0000007152557373,0.9687501192092896],"min":[7.182696890595253e-07,0.9374998211860657],"type":"VEC2"},{"bufferView":24,"componentType":5123,"count":9162,"max":[4413],"min":[0],"type":"SCALAR"},{"bufferView":25,"componentType":5126,"count":4414,"max":[1.2447654008865356,0.29028451442718506,0.29028579592704773],"min":[1.0101685523986816,-0.2902851104736328,-0.2902839183807373],"type":"VEC3"},{"bufferView":26,"componentType":5126,"count":4414,"max":[1.0,1.0,1.0],"min":[-0.1798718273639679,-1.0,-1.0],"type":"VEC3"},{"bufferView":27,"componentType":5126,"count":4414,"max":[1.0000011920928955,0.9687503576278687],"min":[5.662441253662109e-07,0.9062496423721313],"type":"VEC2"},{"bufferView":28,"componentType":5123,"count":9528,"max":[3109],"min":[0],"type":"SCALAR"},{"bufferView":29,"componentType":5126,"count":3110,"max":[0.6730358600616455,0.9938918352127075,-0.507357656955719],"min":[-0.6730358600616455,0.6244035363197327,-2.028174877166748],"type":"VEC3"},{"bufferView":30,"componentType":5126,"count":3110,"max":[0.9998377561569214,0.9996599555015564,0.9712864756584167],"min":[-0.9998376369476318,-0.997899055480957,-0.9917802810668945],"type":"VEC3"},{"bufferView":31,"componentType":5126,"count":3110,"max":[0.5482136011123657,0.9998049034475116],"min":[0.00019509655248839408,0.00019925832748413086],"type":"VEC2"}],"asset":{"generator":"Soft8Soft Verge3D for Blender add-on","version":"2.0"},"bufferViews":[{"buffer":0,"byteLength":100800,"byteOffset":0,"target":34963},{"buffer":0,"byteLength":242400,"byteOffset":100800,"target":34962},{"buffer":0,"byteLength":242400,"byteOffset":343200,"target":34962},{"buffer":0,"byteLength":7074432,"byteOffset":585600,"target":34963},{"buffer":0,"byteLength":4281636,"byteOffset":7660032,"target":34962},{"buffer":0,"byteLength":4281636,"byteOffset":11941668,"target":34962},{"buffer":0,"byteLength":2854424,"byteOffset":16223304,"target":34962},{"buffer":0,"byteLength":69984,"byteOffset":19077728,"target":34963},{"buffer":0,"byteLength":129072,"byteOffset":19147712,"target":34962},{"buffer":0,"byteLength":129072,"byteOffset":19276784,"target":34962},{"buffer":0,"byteLength":86048,"byteOffset":19405856,"target":34962},{"buffer":0,"byteLength":6912,"byteOffset":19491904,"target":34963},{"buffer":0,"byteLength":10692,"byteOffset":19498816,"target":34962},{"buffer":0,"byteLength":10692,"byteOffset":19509508,"target":34962},{"buffer":0,"byteLength":14256,"byteOffset":19520200,"target":34962},{"buffer":0,"byteLength":7128,"byteOffset":19534456,"target":34962},{"buffer":0,"byteLength":2880,"byteOffset":19541584,"target":34963},{"buffer":0,"byteLength":4548,"byteOffset":19544464,"target":34962},{"buffer":0,"byteLength":4548,"byteOffset":19549012,"target":34962},{"buffer":0,"byteLength":3032,"byteOffset":19553560,"target":34962},{"buffer":0,"byteLength":1788,"byteOffset":19556592,"target":34963},{"buffer":0,"byteLength":5004,"byteOffset":19558380,"target":34962},{"buffer":0,"byteLength":5004,"byteOffset":19563384,"target":34962},{"buffer":0,"byteLength":3336,"byteOffset":19568388,"target":34962},{"buffer":0,"byteLength":18324,"byteOffset":19571724,"target":34963},{"buffer":0,"byteLength":52968,"byteOffset":19590048,"target":34962},{"buffer":0,"byteLength":52968,"byteOffset":19643016,"target":34962},{"buffer":0,"byteLength":35312,"byteOffset":19695984,"target":34962},{"buffer":0,"byteLength":19056,"byteOffset":19731296,"target":34963},{"buffer":0,"byteLength":37320,"byteOffset":19750352,"target":34962},{"buffer":0,"byteLength":37320,"byteOffset":19787672,"target":34962},{"buffer":0,"byteLength":24880,"byteOffset":19824992,"target":34962}],"buffers":[{"byteLength":19849872,"uri":"Object-1-2.bin"}],"cameras":[{"extensions":{"S8S_v3d_camera_data":{"controls":"ORBIT","enablePan":true,"moveSpeed":1,"orbitMaxDistance":10000,"orbitMaxPolarAngle":3.141592653589793,"orbitMinDistance":0,"orbitMinPolarAngle":0,"orbitTarget":[-0.7651057839393616,1.7045780420303345,-0.3687860071659088],"rotateSpeed":1,"viewportFitInitialAspect":1,"viewportFitType":"VERTICAL"}},"name":"__DEFAULT__","perspective":{"aspectRatio":1,"yfov":0.7853981633974483,"zfar":1000.0,"znear":0.10000000149011612},"type":"perspective"}],"extensionsUsed":["S8S_v3d_material_data","S8S_v3d_camera_data","S8S_v3d_mesh_data","S8S_v3d_node_data","S8S_v3d_scene_data"],"materials":[{"extensions":{"S8S_v3d_material_data":{"nodeGraph":{"edges":[{"fromNode":1,"fromOutput":0,"toInput":0,"toNode":0}],"nodes":[{"inputs":[[0,0,0,0],[0,0,0,0],[0,0,0]],"is_active_output":true,"name":"Output","outputs":[],"type":"OUTPUT_MATERIAL_BL"},{"inputs":[[0.01203783880919218,0.01203783880919218,0.01203783880919218,1.0],0.0,[1.0,1.0,1.0],[0.0,0.0,0.0,1.0],0.8999999761581421,0.5,0.0,0.3499999940395355,0.0,0.0,0.0,0.0,0.0,0.03,1.45,0.0,0.0,[0.0,0.0,0.0,1.0],0,1,[0.0,0.0,0.0],[0.0,0.0,0.0],[0.0,0.0,0.0]],"name":"Principled-Based","outputs":[[0,0,0,0]],"type":"BSDF_PRINCIPLED_BL"}]},"useCastShadows":true}},"name":"Core"},{"extensions":{"S8S_v3d_material_data":{"nodeGraph":{"edges":[{"fromNode":1,"fromOutput":0,"toInput":0,"toNode":0}],"nodes":[{"inputs":[[0,0,0,0],[0,0,0,0],[0,0,0]],"is_active_output":true,"name":"Output","outputs":[],"type":"OUTPUT_MATERIAL_BL"},{"inputs":[[0.1351468712091446,0.1351468712091446,0.1351468712091446,1.0],0.0,[1.0,1.0,1.0],[0.0,0.0,0.0,1.0],1.0,0.5,0.0,0.20000000298023224,0.0,0.0,0.0,0.0,0.0,0.03,1.45,0.0,0.0,[0.0,0.0,0.0,1.0],0,1,[0.0,0.0,0.0],[0.0,0.0,0.0],[0.0,0.0,0.0]],"name":"Principled-Based","outputs":[[0,0,0,0]],"type":"BSDF_PRINCIPLED_BL"}]},"useCastShadows":true}},"name":"Gears"},{"extensions":{"S8S_v3d_material_data":{"nodeGraph":{"edges":[{"fromNode":1,"fromOutput":0,"toInput":0,"toNode":0}],"nodes":[{"inputs":[[0,0,0,0],[0,0,0,0],[0.0,0.0,0.0]],"is_active_output":true,"name":"材质输出","outputs":[],"type":"OUTPUT_MATERIAL_BL"},{"inputs":[[0.42267051339149475,0.7047759294509888,1.0,1.0],4.0],"is_active_output":false,"name":"自发光(发射)","outputs":[[0,0,0,0]],"type":"EMISSION_BL"}]},"useCastShadows":true}},"name":"Glass"},{"extensions":{"S8S_v3d_material_data":{"nodeGraph":{"edges":[{"fromNode":1,"fromOutput":0,"toInput":0,"toNode":0}],"nodes":[{"inputs":[[0,0,0,0],[0,0,0,0],[0.0,0.0,0.0]],"is_active_output":true,"name":"材质输出","outputs":[],"type":"OUTPUT_MATERIAL_BL"},{"inputs":[[0.05561977997422218,0.11199604719877243,0.49584728479385376,1.0],0.0,[1.0,0.20000000298023224,0.10000000149011612],[0.800000011920929,0.800000011920929,0.800000011920929,1.0],0.8999999761581421,0.5,0.0,0.44708994030952454,0.0,0.0,0.0,0.5,0.0,0.029999999329447746,1.4500000476837158,0.0,0.0,[0.0,0.0,0.0,1.0],1.0,1.0,[0.0,0.0,0.0],[0.0,0.0,0.0],[0.0,0.0,0.0]],"is_active_output":false,"name":"原理化BSDF","outputs":[[0,0,0,0]],"type":"BSDF_PRINCIPLED_BL"}]},"useCastShadows":true}},"name":"Glass.001"},{"extensions":{"S8S_v3d_material_data":{"nodeGraph":{"edges":[{"fromNode":1,"fromOutput":0,"toInput":0,"toNode":0}],"nodes":[{"inputs":[[0,0,0,0],[0,0,0,0],[0.0,0.0,0.0]],"is_active_output":true,"name":"材质输出","outputs":[],"type":"OUTPUT_MATERIAL_BL"},{"inputs":[[0.5707207918167114,0.5731611251831055,0.5805201530456543,1.0],0.0,[1.0,0.20000000298023224,0.10000000149011612],[0.03352048620581627,0.10949587821960449,0.28704333305358887,1.0],1.0,0.5,0.0,0.42513227462768555,0.0,0.0,0.0,0.5,0.0,0.029999999329447746,1.4500000476837158,0.0,0.0,[0.0,0.0,0.0,1.0],1.0,1.0,[0.0,0.0,0.0],[0.0,0.0,0.0],[0.0,0.0,0.0]],"is_active_output":false,"name":"原理化BSDF","outputs":[[0,0,0,0]],"type":"BSDF_PRINCIPLED_BL"}]},"useCastShadows":true}},"name":"Guns"},{"extensions":{"S8S_v3d_material_data":{"nodeGraph":{"edges":[],"nodes":[{"inputs":[[0.800000011920929,0.800000011920929,0.800000011920929,1.0],0.0,[1.0,0.20000000298023224,0.10000000149011612],[0.800000011920929,0.800000011920929,0.800000011920929,1.0],0.0,0.5,0.0,0.5,0.0,0.0,0.0,0.5,0.0,0.029999999329447746,1.4500000476837158,0.0,0.0,[0.0,0.0,0.0,1.0],1.0,1.0,[0.0,0.0,0.0],[0.0,0.0,0.0],[0.0,0.0,0.0]],"is_active_output":false,"name":"原理化BSDF","outputs":[[0,0,0,0]],"type":"BSDF_PRINCIPLED_BL"}]},"useCastShadows":true}},"name":"Main body"},{"extensions":{"S8S_v3d_material_data":{"nodeGraph":{"edges":[{"fromNode":1,"fromOutput":0,"toInput":0,"toNode":0}],"nodes":[{"inputs":[[0,0,0,0],[0,0,0,0],[0.0,0.0,0.0]],"is_active_output":true,"name":"Material Output","outputs":[],"type":"OUTPUT_MATERIAL_BL"},{"inputs":[[0.800000011920929,0.800000011920929,0.800000011920929,1.0],0.0,[1.0,0.20000000298023224,0.10000000149011612],[0.800000011920929,0.800000011920929,0.800000011920929,1.0],0.0,0.5,0.0,0.5,0.0,0.0,0.0,0.5,0.0,0.029999999329447746,1.4500000476837158,0.0,0.0,[0.0,0.0,0.0,1.0],1.0,1.0,[0.0,0.0,0.0],[0.0,0.0,0.0],[0.0,0.0,0.0]],"is_active_output":false,"name":"Principled BSDF","outputs":[[0,0,0,0]],"type":"BSDF_PRINCIPLED_BL"}]},"useCastShadows":true}},"name":"Material"},{"extensions":{"S8S_v3d_material_data":{"nodeGraph":{"edges":[{"fromNode":1,"fromOutput":0,"toInput":0,"toNode":0}],"nodes":[{"inputs":[[0,0,0,0],[0,0,0,0],[0.0,0.0,0.0]],"is_active_output":true,"name":"材质输出","outputs":[],"type":"OUTPUT_MATERIAL_BL"},{"inputs":[[0.800000011920929,0.800000011920929,0.800000011920929,1.0],0.0,[1.0,0.20000000298023224,0.10000000149011612],[0.9169375896453857,0.9169375896453857,0.9169375896453857,1.0],1.0,0.5,0.0,0.5,0.0,0.0,0.0,0.5,0.0,0.029999999329447746,1.4500000476837158,0.0,0.0,[0.0,0.0,0.0,1.0],1.0,1.0,[0.0,0.0,0.0],[0.0,0.0,0.0],[0.0,0.0,0.0]],"is_active_output":false,"name":"原理化BSDF","outputs":[[0,0,0,0]],"type":"BSDF_PRINCIPLED_BL"}]},"useCastShadows":true}},"name":"Material.013"},{"extensions":{"S8S_v3d_material_data":{"nodeGraph":{"edges":[{"fromNode":1,"fromOutput":0,"toInput":0,"toNode":0},{"fromNode":2,"fromOutput":0,"toInput":20,"toNode":1}],"nodes":[{"inputs":[[0,0,0,0],[0,0,0,0],[0.0,0.0,0.0]],"is_active_output":true,"name":"材质输出","outputs":[],"type":"OUTPUT_MATERIAL_BL"},{"inputs":[[0.800000011920929,0.800000011920929,0.800000011920929,1.0],0.0,[1.0,0.20000000298023224,0.10000000149011612],[0.800000011920929,0.800000011920929,0.800000011920929,1.0],0.0,0.5,0.0,0.4000000059604645,0.0,0.0,0.0,0.5,0.0,0.029999999329447746,1.4500000476837158,0.0,0.0,[0.0,0.0,0.0,1.0],1.0,1.0,[0.0,0.0,0.0],[0.0,0.0,0.0],[0.0,0.0,0.0]],"is_active_output":false,"name":"原理化BSDF","outputs":[[0,0,0,0]],"type":"BSDF_PRINCIPLED_BL"},{"inputs":[0.0,[0.5,0.5,1.0,1.0]],"is_active_output":false,"name":"法线贴图","outputs":[[0.0,0.0,0.0]],"type":"NORMAL_MAP_BL","uvLayer":""}]},"useCastShadows":true}},"name":"Thrusters"},{"extensions":{"S8S_v3d_material_data":{"nodeGraph":{"edges":[{"fromNode":1,"fromOutput":0,"toInput":0,"toNode":0}],"nodes":[{"inputs":[[0,0,0,0],[0,0,0,0]],"is_active_output":true,"name":"World Output","outputs":[],"type":"OUTPUT_WORLD_BL"},{"inputs":[[0.05087608844041824,0.05087608844041824,0.05087608844041824,1.0],1.0],"is_active_output":false,"name":"Background","outputs":[[0,0,0,0]],"type":"BACKGROUND_BL"}]},"useCastShadows":true}},"name":"Verge3D_Environment_World"}],"meshes":[{"extensions":{"S8S_v3d_mesh_data":{"colorLayers":{},"uvLayers":{}}},"name":"Gear.004","primitives":[{"attributes":{"NORMAL":2,"POSITION":1},"indices":0,"material":6,"mode":4}]},{"extensions":{"S8S_v3d_mesh_data":{"colorLayers":{},"uvLayers":{"UVMap":"TEXCOORD_0"}}},"name":"Sphere.000","primitives":[{"attributes":{"NORMAL":5,"POSITION":4,"TEXCOORD_0":6},"indices":3,"material":3,"mode":4}]},{"extensions":{"S8S_v3d_mesh_data":{"colorLayers":{},"uvLayers":{"UVMap":"TEXCOORD_0"}}},"name":"Sphere.001","primitives":[{"attributes":{"NORMAL":9,"POSITION":8,"TEXCOORD_0":10},"indices":7,"material":4,"mode":4}]},{"extensions":{"S8S_v3d_mesh_data":{"colorLayers":{},"uvLayers":{"UVMap":"TEXCOORD_0"}}},"name":"Sphere.002","primitives":[{"attributes":{"NORMAL":13,"POSITION":12,"TANGENT":14,"TEXCOORD_0":15},"indices":11,"material":8,"mode":4}]},{"extensions":{"S8S_v3d_mesh_data":{"colorLayers":{},"uvLayers":{"UVMap":"TEXCOORD_0"}}},"name":"Sphere.003","primitives":[{"attributes":{"NORMAL":18,"POSITION":17,"TEXCOORD_0":19},"indices":16,"material":2,"mode":4}]},{"extensions":{"S8S_v3d_mesh_data":{"colorLayers":{},"uvLayers":{}}},"name":"Sphere.012","primitives":[{"attributes":{"NORMAL":22,"POSITION":21,"TEXCOORD_0":23},"indices":20,"material":5,"mode":4},{"attributes":{"NORMAL":26,"POSITION":25,"TEXCOORD_0":27},"indices":24,"material":0,"mode":4}]},{"extensions":{"S8S_v3d_mesh_data":{"colorLayers":{},"uvLayers":{"UVMap":"TEXCOORD_0"}}},"name":"Sphere.014","primitives":[{"attributes":{"NORMAL":30,"POSITION":29,"TEXCOORD_0":31},"indices":28,"material":7,"mode":4}]}],"nodes":[{"extensions":{"S8S_v3d_node_data":{"frustumCulling":true,"groupNames":["Collection"],"hidden":false,"renderOrder":0,"useShadows":true}},"mesh":3,"name":"Main body","rotation":[-7.610515950773333e-08,-0.3565919101238251,-2.904809548454068e-08,0.9342602491378784],"scale":[7.262459754943848,7.2624592781066895,7.262459754943848],"translation":[12.974662780761719,7.122325420379639,12.455938339233398]},{"extensions":{"S8S_v3d_node_data":{"frustumCulling":true,"groupNames":["Collection"],"hidden":false,"renderOrder":0,"useShadows":true}},"mesh":0,"name":"Gears","rotation":[-0.25214868783950806,-0.2521486282348633,0.660621702671051,0.6606218814849854],"scale":[4.954327583312988,2.3069911003112793,4.9543280601501465],"translation":[12.974662780761719,7.122325420379639,12.455938339233398]},{"extensions":{"S8S_v3d_node_data":{"frustumCulling":true,"groupNames":["Collection"],"hidden":false,"renderOrder":0,"useShadows":true}},"mesh":6,"name":"Tail","rotation":[-7.610515950773333e-08,-0.3565919101238251,-2.904809548454068e-08,0.9342602491378784],"scale":[7.262459754943848,7.2624592781066895,7.262459754943848],"translation":[12.974662780761719,7.122325420379639,12.455938339233398]},{"extensions":{"S8S_v3d_node_data":{"frustumCulling":true,"groupNames":["Collection"],"hidden":false,"renderOrder":0,"useShadows":true}},"mesh":4,"name":"Main body.002","rotation":[-7.610515950773333e-08,-0.3565919101238251,-2.904809548454068e-08,0.9342602491378784],"scale":[7.262459754943848,7.2624592781066895,7.262459754943848],"translation":[12.974662780761719,7.122325420379639,12.455938339233398]},{"extensions":{"S8S_v3d_node_data":{"frustumCulling":true,"groupNames":["Collection"],"hidden":false,"renderOrder":0,"useShadows":true}},"mesh":5,"name":"Core","rotation":[-3.3274378807846006e-08,-0.9127702713012695,-7.435458826421382e-08,0.40847328305244446],"scale":[6.016530990600586,6.016530990600586,6.016530990600586],"translation":[13.522842407226562,7.122325420379639,11.842445373535156]},{"extensions":{"S8S_v3d_node_data":{"frustumCulling":true,"groupNames":["Collection"],"hidden":false,"renderOrder":0,"useShadows":true}},"mesh":2,"name":"Guns","rotation":[-7.610515950773333e-08,-0.3565919101238251,-2.904809548454068e-08,0.9342602491378784],"scale":[7.262459754943848,7.2624592781066895,7.262459754943848],"translation":[12.974662780761719,7.122325420379639,12.455938339233398]},{"extensions":{"S8S_v3d_node_data":{"frustumCulling":true,"groupNames":["Collection"],"hidden":false,"renderOrder":0,"useShadows":true}},"mesh":1,"name":"Main body.001","rotation":[-7.610515950773333e-08,-0.3565919101238251,-2.904809548454068e-08,0.9342602491378784],"scale":[7.262459754943848,7.2624592781066895,7.262459754943848],"translation":[12.974662780761719,7.122325420379639,12.455938339233398]},{"camera":0,"name":"__DEFAULT_CAMERA__","rotation":[-0.2917417883872986,-0.19889086484909058,-0.0687180906534195,0.9330632090568542],"scale":[1.0,1.0,1.0],"translation":[-64.47561645507812,111.7368392944336,144.09104919433594]}],"scene":0,"scenes":[{"extensions":{"S8S_v3d_scene_data":{"aaMethod":"AUTO","iblEnvironmentMode":"PMREM","physicallyCorrectLights":true,"pmremMaxTileSize":512,"shadowMap":{"esmDistanceScale":1.0,"renderReverseSided":false,"renderSingleSided":true,"type":"PCFPOISSON"},"toneMapping":{"type":"filmicBlender"},"worldMaterial":9}},"extras":{"animFrameRate":24,"coordSystem":"Z_UP_RIGHT"},"name":"Scene","nodes":[0,1,5,2,4,6,3,7]}]}
